<svg width="449" height="341" viewBox="0 0 449 341" fill="none" xmlns="http://www.w3.org/2000/svg">
<g clip-path="url(#clip0_151_4801)">
<path d="M415.43 309.95C400.719 321.148 382.796 332.491 365.175 337.84C360.095 339.427 354.853 340.441 349.547 340.861C344.587 341.26 339.595 340.873 334.755 339.714C322.038 336.552 310.242 331.016 298.829 324.547C295.1 322.43 291.414 320.216 287.749 317.954C281.768 314.259 275.846 310.435 269.907 306.703C269.018 306.137 268.135 305.582 267.245 305.033H267.24C265.807 304.133 264.37 303.247 262.929 302.372C262.676 302.216 262.422 302.065 262.164 301.909C259.443 300.261 256.674 298.65 253.86 297.078C253.515 296.889 253.17 296.695 252.825 296.507C247.379 293.487 241.782 290.749 236.055 288.304C232.294 286.72 228.484 285.293 224.637 284.076H224.631C223.16 283.612 221.684 283.176 220.202 282.778C215.758 281.559 211.23 280.673 206.655 280.128C200.35 279.365 193.973 279.415 187.681 280.278C187.255 280.338 186.835 280.397 186.409 280.467C169.381 283.192 153.84 292.381 136.736 294.546C136.181 294.616 135.631 294.681 135.076 294.729C134.839 294.751 134.602 294.778 134.365 294.794C129.395 295.219 124.393 295.096 119.449 294.428C105.638 292.607 92.1875 286.957 80.079 279.837C51.7721 263.188 28.8161 237.599 14.8594 207.964C12.4627 202.886 10.3348 197.684 8.48453 192.382C3.31131 177.68 0.462409 162.261 0.0403829 146.681C-1.26908 92.6263 29.4628 38.3935 77.7134 13.9459C125.969 -10.5016 189.448 -2.41706 228.366 35.1403C251.974 57.9235 265.634 88.7967 283.401 116.379C301.167 143.956 326.419 170.299 358.988 174.317C375.58 176.364 392.943 172.405 408.845 177.554C417.65 180.409 425.162 185.871 431.213 192.829C435.282 197.552 438.687 202.807 441.333 208.449C443.273 212.528 444.847 216.771 446.038 221.128C446.259 221.931 446.463 222.733 446.663 223.536C454.584 255.874 441.926 289.774 415.43 309.95Z" fill="#F2F2F2"/>
<path d="M150.434 251.409H99.78C92.191 251.409 86.0388 257.558 86.0388 265.143V265.143C86.0388 272.729 92.191 278.878 99.78 278.878H150.434C158.023 278.878 164.175 272.729 164.175 265.143C164.175 257.558 158.023 251.409 150.434 251.409Z" fill="#3F3D56"/>
<path d="M135.076 271.876V294.729C129.873 295.232 124.629 295.131 119.449 294.427V271.876H135.076Z" fill="#3F3D56"/>
<path d="M187.681 280.278C187.255 280.337 186.835 280.397 186.409 280.467C169.381 283.192 153.84 292.381 136.736 294.546C136.181 294.616 135.631 294.681 135.076 294.729C134.839 294.751 134.602 294.778 134.365 294.794C130.189 290.706 126.012 286.354 122.089 281.845C119.961 279.406 117.902 276.917 115.968 274.396C110.945 267.89 106.688 261.201 103.875 254.629C104.161 251.479 102.2 244.191 101.262 238.611L101.257 238.606C100.858 236.263 100.642 234.227 100.842 232.918C101.984 225.367 108.154 226.234 110.051 218.833C111.762 217.414 113.584 216.133 115.499 215.004C115.817 214.815 116.14 214.627 116.474 214.438L137.059 200.219L144.927 207.932L156.9 219.674L169.877 232.39L158.862 243.513C158.862 243.513 168.066 254.118 178.827 268.256C181.716 272.054 184.717 276.109 187.681 280.278Z" fill="#2F2E41"/>
<path d="M365.174 271.876V337.84C360.095 339.427 354.853 340.441 349.547 340.861V271.876H365.174Z" fill="#3F3D56"/>
<path d="M385.382 266.49H334.728C327.139 266.49 320.987 272.639 320.987 280.224V280.224C320.987 287.81 327.139 293.959 334.728 293.959H385.382C392.971 293.959 399.123 287.81 399.123 280.224C399.123 272.639 392.971 266.49 385.382 266.49Z" fill="#3F3D56"/>
<path d="M262.164 301.909C259.442 300.261 256.674 298.65 253.86 297.077C253.515 296.889 253.17 296.695 252.825 296.507L254.679 295.715L259.68 293.566L259.728 293.544L259.782 293.727L262.164 301.909Z" fill="#FFB6B6"/>
<path d="M269.907 306.702C269.018 306.137 268.134 305.582 267.245 305.033H267.24C265.807 304.133 264.37 303.246 262.929 302.372C262.676 302.216 262.422 302.065 262.164 301.909C259.442 300.261 256.674 298.65 253.86 297.077C253.515 296.889 253.17 296.695 252.825 296.506C247.379 293.487 241.782 290.749 236.055 288.303C232.294 286.72 228.484 285.293 224.637 284.075H224.631L221.608 279.018L208.002 256.24L205.011 251.236C205.011 251.236 194.81 254.252 180.374 257.145C175.12 258.2 169.311 259.235 163.216 260.107C156.701 261.034 149.868 261.771 143.078 262.127C139.84 262.299 136.612 262.385 133.433 262.359C125.215 262.305 117.32 261.534 110.407 259.703C108.1 257.538 101.149 254.592 96.1696 251.893H96.1642C94.0734 250.762 92.3383 249.68 91.4276 248.716C86.179 243.168 90.6624 238.843 85.9957 232.789C85.9329 230.568 86.0464 228.345 86.3352 226.142C86.3837 225.776 86.4322 225.404 86.4915 225.027L87.9626 200.057L98.8909 198.614L115.521 196.416L133.535 194.036L135.518 209.559C135.518 209.559 149.545 208.848 167.317 209.085C195.861 209.472 234.056 212.316 239.229 224.521C239.714 225.668 240.199 226.826 240.684 227.984C241.837 230.753 242.98 233.536 244.112 236.333C248.212 246.459 252.125 256.682 255.697 266.344C257.917 272.355 260.008 278.151 261.932 283.574C263.479 287.937 264.912 292.063 266.221 295.86C267.418 299.329 268.501 302.523 269.465 305.388C269.616 305.835 269.762 306.277 269.907 306.702Z" fill="#2F2E41"/>
<path d="M169.378 155.413L134.86 126.112L157.318 103.395L172.985 129.046L231.062 140.554C232.808 139.24 234.899 138.463 237.08 138.317C239.26 138.17 241.436 138.661 243.343 139.73C245.249 140.798 246.803 142.398 247.816 144.334C248.828 146.27 249.255 148.459 249.044 150.633C248.834 152.807 247.995 154.874 246.63 156.58C245.264 158.286 243.432 159.558 241.356 160.241C239.28 160.924 237.05 160.989 234.938 160.427C232.826 159.865 230.923 158.702 229.461 157.078L169.378 155.413Z" fill="#A0616A"/>
<path d="M104.354 87.6034C100.365 100.575 138.357 131.511 138.357 131.511C138.779 128.397 160.319 155.249 161.785 152.818C165.95 145.906 170.532 128.821 175.341 126.638C178.091 125.389 162.316 108.032 162.316 108.032C162.316 108.032 154.269 97.3915 143.645 83.9056C140.712 80.0372 136.847 76.9735 132.411 74.9995C127.975 73.0255 123.111 72.2054 118.273 72.6157C118.273 72.6157 108.343 74.6322 104.354 87.6034Z" fill="#3F3D56"/>
<path d="M121.152 58.888C134.046 58.888 144.498 48.4406 144.498 35.5532C144.498 22.6657 134.046 12.2184 121.152 12.2184C108.258 12.2184 97.8059 22.6657 97.8059 35.5532C97.8059 48.4406 108.258 58.888 121.152 58.888Z" fill="#A0616A"/>
<path d="M132.825 74.3108C137.855 77.2994 140.863 82.7907 142.591 88.3786C145.788 98.7238 147.713 109.42 148.322 120.23L150.146 152.595L172.739 221.509C153.159 238.069 79.5582 225.273 79.5582 225.273C79.5582 225.273 77.2989 224.52 79.5582 222.262C81.8175 220.003 84.0169 222.004 81.7577 219.746C79.4984 217.488 81.0558 220.004 81.8089 217.745C82.5621 215.487 81.8089 216.993 81.0558 216.24C80.3027 215.487 86.886 208.712 86.886 208.712L80.8612 169.155L73.3302 89.3654C82.3674 78.0744 100.542 71.4184 100.542 71.4184L105.239 62.9694L128.72 64.8469L132.825 74.3108Z" fill="#3F3D56"/>
<path d="M140.397 23.1557C142.212 24.5084 143.556 26.3959 144.241 28.5524C144.504 25.0282 144.521 21.49 144.291 17.9636C144.016 15.4855 142.27 14.9281 140.249 14.2822C138.424 13.6987 136.36 13.0396 135.804 10.6339C128.466 3.49818 115.69 3.858 106.947 6.34706C102.137 7.71675 99.3684 9.47652 99.1207 10.5074L99.0694 10.7196L98.874 10.8173C95.1657 12.6705 94.4438 18.5228 94.4915 23.1058C94.5819 31.7405 97.5647 41.5473 99.245 42.3439C99.334 42.3861 99.3565 42.3696 99.395 42.3375C101.925 40.3165 105.012 42.4911 106.369 43.6733C107.169 38.3067 109.745 33.3629 113.686 29.6314C117.627 25.9 122.705 23.5962 128.11 23.0879C129.875 22.9174 131.626 22.624 133.35 22.2097C134.225 21.9836 135.124 21.8656 136.027 21.8586C137.582 21.835 139.107 22.2876 140.397 23.1557Z" fill="#2F2E41"/>
<path d="M110.98 190.57L103.839 186.914C103.456 186.642 103.184 186.241 103.073 185.784C102.962 185.328 103.018 184.847 103.232 184.429C103.446 184.011 103.804 183.684 104.239 183.508C104.675 183.331 105.159 183.317 105.604 183.468L112.746 187.124C113.128 187.397 113.4 187.798 113.511 188.254C113.623 188.71 113.566 189.191 113.352 189.609C113.138 190.027 112.78 190.354 112.345 190.531C111.909 190.707 111.425 190.721 110.98 190.57L110.98 190.57Z" fill="#6C63FF"/>
<path d="M86.9449 180.776L75.1968 137.061L106.591 131.121L104.903 161.126L146.152 203.579C148.335 203.489 150.498 204.037 152.376 205.155C154.253 206.273 155.765 207.913 156.726 209.875C157.687 211.837 158.057 214.036 157.789 216.204C157.522 218.372 156.629 220.416 155.22 222.085C153.811 223.755 151.946 224.979 149.853 225.607C147.759 226.236 145.528 226.242 143.432 225.625C141.335 225.009 139.463 223.795 138.045 222.134C136.626 220.472 135.721 218.434 135.442 216.267L86.9449 180.776Z" fill="#A0616A"/>
<path d="M71.9843 88.0473C61.3281 96.4558 75.0054 143.489 75.0054 143.489C77.123 141.166 79.5837 175.496 82.1721 174.327C89.5284 171.005 103.012 159.549 108.21 160.483C111.182 161.017 108.068 137.775 108.068 137.775C108.068 137.775 107.495 124.449 106.418 107.318C106.204 102.469 104.766 97.753 102.237 93.6092C99.7086 89.4655 96.1724 86.0284 91.9574 83.6181C91.9574 83.6181 82.6405 79.6388 71.9843 88.0473Z" fill="#3F3D56"/>
<path d="M441.333 208.449L14.8593 207.964C12.4626 202.885 10.3347 197.684 8.48444 192.382L431.213 192.829C435.282 197.551 438.686 202.807 441.333 208.449Z" fill="#3F3D56"/>
<path d="M305.5 321.46C303.296 322.527 301.072 323.556 298.829 324.547C295.1 322.43 291.414 320.216 287.749 317.954L301.34 311.986L305.5 321.46Z" fill="#FFB6B6"/>
<path d="M404.588 247.24C402.378 250.202 400.099 253.105 397.749 255.949C395.583 258.572 393.359 261.145 391.078 263.667C390.135 264.712 389.181 265.752 388.206 266.781C386.412 268.703 384.578 270.594 382.704 272.452C379.331 273.513 372.498 275.382 365.175 277.127C359.845 278.393 354.257 279.594 349.547 280.359C346.911 280.832 344.244 281.116 341.567 281.21C338.387 281.237 335.159 281.151 331.921 280.978C328.267 280.784 324.608 280.483 320.992 280.095C311.589 279.109 302.482 277.574 294.625 275.996C291.748 275.425 289.043 274.844 286.553 274.278C281.838 273.217 277.893 272.226 275.037 271.472C271.82 270.632 269.988 270.088 269.988 270.088L261.932 283.574L257.75 290.571L254.679 295.715L253.86 297.077C253.515 296.889 253.17 296.695 252.825 296.506C247.379 293.487 241.782 290.749 236.055 288.303C232.294 286.72 228.484 285.293 224.637 284.075H224.631C223.16 283.612 221.684 283.176 220.202 282.777C220.665 281.533 221.134 280.28 221.608 279.018C222.492 276.664 223.394 274.289 224.313 271.892C226.302 266.7 228.36 261.432 230.478 256.191C232.213 251.888 233.981 247.601 235.77 243.373C236.594 241.423 238.27 239.71 240.614 238.207C241.735 237.501 242.903 236.875 244.112 236.333C250.821 233.279 260.704 231.291 271.594 230.015C272.494 229.913 273.399 229.81 274.31 229.713C283.325 228.765 292.89 228.275 301.836 228.049C306.314 227.936 310.635 227.893 314.655 227.887C315.954 227.887 317.217 227.891 318.444 227.898H318.449C321.763 227.914 324.813 227.963 327.497 228.017C328.019 228.027 328.526 228.044 329.022 228.054H329.027C329.361 228.06 329.69 228.071 330.013 228.076C335.882 228.227 339.481 228.41 339.481 228.41L340.877 217.465L341.163 215.257L341.432 213.156V213.151L341.464 212.887L341.685 212.882L345.565 212.806L378.178 212.171L395.993 211.821L393.169 223.918L388.508 243.879C388.982 247.035 404.749 244.563 404.588 247.24Z" fill="#2F2E41"/>
<path d="M309.52 319.468C308.189 320.146 306.847 320.814 305.5 321.46C303.296 322.527 301.072 323.556 298.829 324.547C295.1 322.43 291.414 320.216 287.749 317.954C281.768 314.259 275.846 310.435 269.907 306.702C269.018 306.137 268.134 305.582 267.245 305.033H267.24C264.793 301.403 262.298 297.621 259.782 293.727C259.744 293.673 259.712 293.62 259.68 293.566C259.033 292.575 258.39 291.576 257.75 290.571C253.725 284.269 249.678 277.698 245.75 270.987L255.697 266.344L274.191 257.716L277.381 256.229L286.553 274.278L294.733 290.377L296.554 293.959L309.52 319.468Z" fill="#2F2E41"/>
<path d="M312.307 232.814L359.459 187.364L372.528 150.378L353.251 142C343.349 151.48 332.646 181.008 332.646 181.008L300.199 222.268C299.946 222.355 299.694 222.447 299.445 222.557C297.984 223.201 296.713 224.211 295.756 225.489C294.799 226.768 294.189 228.271 293.983 229.854C293.778 231.437 293.984 233.047 294.583 234.527C295.181 236.007 296.152 237.308 297.4 238.303C298.649 239.299 300.133 239.956 301.71 240.211C303.287 240.465 304.902 240.309 306.401 239.757C307.9 239.206 309.231 238.277 310.265 237.06C311.3 235.844 312.003 234.382 312.307 232.814Z" fill="#FFB8B8"/>
<path d="M347.826 146.13L372.278 153.888L372.37 153.873C381.471 152.349 389.023 137.493 393.755 125.298C395.312 121.275 395.283 116.812 393.674 112.81C392.064 108.808 388.995 105.566 385.086 103.74C382.193 102.412 378.986 101.919 375.828 102.318C372.67 102.716 369.686 103.989 367.214 105.994L354.658 116.249L347.826 146.13Z" fill="#6C63FF"/>
<path d="M404.489 247.785L404.632 247.595C412.261 237.482 401.827 212.439 400.25 208.806L407.343 206.706L406.107 193.207L405.511 187.187L411.027 181.952L411.045 181.818L414.838 154.838L419.801 136.981C421.672 130.23 421.711 123.104 419.916 116.332C418.12 109.561 414.554 103.39 409.584 98.4516L399.438 88.3834L387.283 69.367L366.903 68.8411L359.575 81.8533C352.76 83.2435 346.648 86.9794 342.306 92.4101C337.963 97.8409 335.664 104.622 335.809 111.573L336.499 146.214L329.186 189.135L328.981 196.931L321.804 204.501L323.131 212.155L317.762 214.292L315.135 225.167C314.131 226.422 307.506 234.792 307.446 237.126C307.437 237.476 307.687 237.821 308.232 238.212C312.521 241.278 336.489 247.923 347.277 243.928C358.768 239.676 403.802 247.662 404.255 247.743L404.489 247.785Z" fill="#6C63FF"/>
<path d="M375.313 63.0116C390.225 63.0116 402.313 50.9294 402.313 36.0253C402.313 21.1211 390.225 9.03894 375.313 9.03894C360.402 9.03894 348.314 21.1211 348.314 36.0253C348.314 50.9294 360.402 63.0116 375.313 63.0116Z" fill="#FFB8B8"/>
<path d="M372.02 63.3727C376.201 63.4378 380.38 63.1459 384.511 62.5001C388.606 61.6678 397.767 54.9578 400.321 50.9201C402.218 47.9201 403.431 43.2354 404.115 39.8339C405.036 35.3326 405.001 30.6882 404.012 26.2014C403.023 21.7145 401.102 17.4854 398.374 13.7877C397.326 12.241 395.878 11.0064 394.185 10.2143C394.035 10.1557 393.881 10.1037 393.725 10.0593C391.258 9.41053 389.042 8.03965 387.36 6.12263C387.034 5.73489 386.68 5.37112 386.302 5.03417C384.401 3.43093 382.148 2.30005 379.726 1.73395C375.817 0.688285 370.16 1.72625 362.912 4.82199C359.271 6.37735 355.289 5.81446 352.225 5.15024C352.053 5.11707 351.876 5.12945 351.71 5.18614C351.545 5.24284 351.397 5.34188 351.281 5.47341C349.978 6.69644 348.26 7.38104 346.472 7.38961C345.377 7.43767 344.228 8.95307 342.84 10.9292C342.525 11.3778 342.157 11.9013 341.892 12.2198L341.856 11.608L341.237 12.2905C340.263 13.3631 339.577 14.6646 339.242 16.0737C338.907 17.4828 338.935 18.9536 339.321 20.3493C339.708 21.745 340.442 23.0202 341.455 24.056C342.468 25.0918 343.726 25.8546 345.114 26.2734C346.215 26.5663 347.344 26.7461 348.482 26.8099C349.171 26.8718 349.884 26.936 350.567 27.0545C352.76 27.5033 354.799 28.5129 356.486 29.9846C358.172 31.4563 359.447 33.3399 360.188 35.4515C360.363 35.9396 360.648 36.3809 361.02 36.7414C361.393 37.102 361.844 37.372 362.338 37.5308C362.832 37.6896 363.355 37.7328 363.869 37.6571C364.382 37.5815 364.871 37.3889 365.298 37.0944C366.009 36.5404 366.845 36.1667 367.732 36.0052C368.62 35.8436 369.533 35.899 370.395 36.1667C371.139 36.5805 371.719 37.2375 372.036 38.0276C372.422 38.9078 373.061 39.6533 373.873 40.1689C376.648 41.599 376.839 47.9341 375.842 53.2153C374.881 58.3058 372.982 61.9883 371.224 62.1704C369.87 62.3104 369.716 62.4065 369.618 62.6457L369.53 62.8599L369.682 63.0603C370.43 63.3312 371.227 63.4378 372.02 63.3727Z" fill="#2F2E41"/>
<path d="M354.531 137.971L344.121 117.226C329.01 118.257 299.02 135.72 299.02 135.72L242.278 147.745C240.597 147.099 238.775 146.907 236.996 147.189C235.218 147.47 233.545 148.215 232.145 149.348C230.746 150.482 229.67 151.963 229.026 153.644C228.382 155.325 228.192 157.146 228.476 158.923C228.76 160.701 229.507 162.372 230.643 163.769C231.778 165.166 233.262 166.24 234.944 166.882C236.627 167.524 238.449 167.711 240.227 167.425C242.005 167.14 243.676 166.391 245.072 165.254L317.252 160.083L354.531 137.971Z" fill="#FFB8B8"/>
<path d="M350.332 141.377L377.52 121.182L382.31 103.932C383.237 100.542 383.198 96.9601 382.196 93.5913C381.194 90.2225 379.27 87.2009 376.64 84.868C373.054 81.7296 368.409 80.0694 363.645 80.223C358.881 80.3767 354.353 82.3327 350.977 85.6956C340.745 95.903 329.076 110.143 331.583 120.018L331.608 120.118L350.332 141.377Z" fill="#6C63FF"/>
<path d="M316.676 195.393H243.928V205.088H316.676V195.393Z" fill="white"/>
<path d="M130.765 195.393H58.0175V205.088H130.765V195.393Z" fill="white"/>
<path d="M139.26 148.77V194.931C139.26 195.519 139.494 196.083 139.911 196.499C140.327 196.915 140.891 197.149 141.48 197.15H209.919C210.507 197.149 211.072 196.915 211.488 196.499C211.904 196.083 212.138 195.519 212.138 194.931V148.77C212.137 148.182 211.903 147.619 211.487 147.204C211.071 146.788 210.507 146.555 209.919 146.554H141.48C140.892 146.555 140.328 146.788 139.912 147.204C139.496 147.619 139.261 148.182 139.26 148.77Z" fill="#3F3D56"/>
<path d="M140.866 149.344V194.362C140.866 194.676 140.991 194.977 141.214 195.199C141.436 195.422 141.737 195.547 142.052 195.547H209.349C209.664 195.547 209.965 195.422 210.187 195.199C210.41 194.977 210.535 194.676 210.535 194.362V149.344C210.535 149.03 210.41 148.728 210.188 148.505C209.966 148.282 209.664 148.157 209.349 148.156H142.052C141.737 148.157 141.435 148.282 141.213 148.505C140.99 148.728 140.866 149.03 140.866 149.344Z" fill="#6C63FF"/>
<path d="M137.829 203.934C137.954 204.091 138.113 204.217 138.295 204.304C138.476 204.391 138.675 204.435 138.876 204.434H212.158C212.359 204.434 212.556 204.389 212.737 204.303C212.918 204.217 213.078 204.091 213.204 203.936C213.33 203.78 213.42 203.598 213.467 203.404C213.514 203.209 213.517 203.006 213.476 202.81L212.339 197.409C212.292 197.189 212.19 196.984 212.043 196.813C211.897 196.642 211.71 196.511 211.499 196.43C211.347 196.371 211.184 196.34 211.021 196.34H140.009C139.845 196.34 139.683 196.371 139.53 196.43C139.32 196.511 139.133 196.642 138.986 196.813C138.839 196.984 138.738 197.189 138.691 197.409L137.553 202.81C137.513 203.006 137.517 203.209 137.564 203.403C137.612 203.597 137.702 203.779 137.829 203.934Z" fill="#2F2E41"/>
<path d="M208.506 198.666H210.237C210.382 198.666 210.5 198.549 210.5 198.403V197.576C210.5 197.431 210.382 197.313 210.237 197.313H208.506C208.361 197.313 208.243 197.431 208.243 197.576V198.403C208.243 198.549 208.361 198.666 208.506 198.666Z" fill="#3F3D56"/>
<path d="M203.992 198.666H205.723C205.868 198.666 205.986 198.549 205.986 198.403V197.576C205.986 197.431 205.868 197.313 205.723 197.313H203.992C203.847 197.313 203.729 197.431 203.729 197.576V198.403C203.729 198.549 203.847 198.666 203.992 198.666Z" fill="#3F3D56"/>
<path d="M199.478 198.666H201.209C201.354 198.666 201.472 198.549 201.472 198.403V197.576C201.472 197.431 201.354 197.313 201.209 197.313H199.478C199.333 197.313 199.215 197.431 199.215 197.576V198.403C199.215 198.549 199.333 198.666 199.478 198.666Z" fill="#3F3D56"/>
<path d="M194.964 198.666H196.695C196.84 198.666 196.958 198.549 196.958 198.403V197.576C196.958 197.431 196.84 197.313 196.695 197.313H194.964C194.818 197.313 194.701 197.431 194.701 197.576V198.403C194.701 198.549 194.818 198.666 194.964 198.666Z" fill="#3F3D56"/>
<path d="M190.45 198.666H192.181C192.326 198.666 192.444 198.549 192.444 198.403V197.576C192.444 197.431 192.326 197.313 192.181 197.313H190.45C190.304 197.313 190.187 197.431 190.187 197.576V198.403C190.187 198.549 190.304 198.666 190.45 198.666Z" fill="#3F3D56"/>
<path d="M185.936 198.666H187.666C187.812 198.666 187.93 198.549 187.93 198.403V197.576C187.93 197.431 187.812 197.313 187.666 197.313H185.936C185.79 197.313 185.672 197.431 185.672 197.576V198.403C185.672 198.549 185.79 198.666 185.936 198.666Z" fill="#3F3D56"/>
<path d="M181.421 198.666H183.152C183.298 198.666 183.415 198.549 183.415 198.403V197.576C183.415 197.431 183.298 197.313 183.152 197.313H181.421C181.276 197.313 181.158 197.431 181.158 197.576V198.403C181.158 198.549 181.276 198.666 181.421 198.666Z" fill="#3F3D56"/>
<path d="M176.907 198.666H178.638C178.784 198.666 178.901 198.549 178.901 198.403V197.576C178.901 197.431 178.784 197.313 178.638 197.313H176.907C176.762 197.313 176.644 197.431 176.644 197.576V198.403C176.644 198.549 176.762 198.666 176.907 198.666Z" fill="#3F3D56"/>
<path d="M172.393 198.666H174.124C174.269 198.666 174.387 198.549 174.387 198.403V197.576C174.387 197.431 174.269 197.313 174.124 197.313H172.393C172.248 197.313 172.13 197.431 172.13 197.576V198.403C172.13 198.549 172.248 198.666 172.393 198.666Z" fill="#3F3D56"/>
<path d="M167.879 198.666H169.61C169.755 198.666 169.873 198.549 169.873 198.403V197.576C169.873 197.431 169.755 197.313 169.61 197.313H167.879C167.734 197.313 167.616 197.431 167.616 197.576V198.403C167.616 198.549 167.734 198.666 167.879 198.666Z" fill="#3F3D56"/>
<path d="M163.365 198.666H165.096C165.241 198.666 165.359 198.549 165.359 198.403V197.576C165.359 197.431 165.241 197.313 165.096 197.313H163.365C163.22 197.313 163.102 197.431 163.102 197.576V198.403C163.102 198.549 163.22 198.666 163.365 198.666Z" fill="#3F3D56"/>
<path d="M158.851 198.666H160.582C160.727 198.666 160.845 198.549 160.845 198.403V197.576C160.845 197.431 160.727 197.313 160.582 197.313H158.851C158.706 197.313 158.588 197.431 158.588 197.576V198.403C158.588 198.549 158.706 198.666 158.851 198.666Z" fill="#3F3D56"/>
<path d="M154.337 198.666H156.068C156.213 198.666 156.331 198.549 156.331 198.403V197.576C156.331 197.431 156.213 197.313 156.068 197.313H154.337C154.191 197.313 154.074 197.431 154.074 197.576V198.403C154.074 198.549 154.191 198.666 154.337 198.666Z" fill="#3F3D56"/>
<path d="M149.823 198.666H151.553C151.699 198.666 151.817 198.549 151.817 198.403V197.576C151.817 197.431 151.699 197.313 151.553 197.313H149.823C149.677 197.313 149.559 197.431 149.559 197.576V198.403C149.559 198.549 149.677 198.666 149.823 198.666Z" fill="#3F3D56"/>
<path d="M145.308 198.666H147.039C147.185 198.666 147.302 198.549 147.302 198.403V197.576C147.302 197.431 147.185 197.313 147.039 197.313H145.308C145.163 197.313 145.045 197.431 145.045 197.576V198.403C145.045 198.549 145.163 198.666 145.308 198.666Z" fill="#3F3D56"/>
<path d="M140.794 198.666H142.525C142.671 198.666 142.788 198.549 142.788 198.403V197.576C142.788 197.431 142.671 197.313 142.525 197.313H140.794C140.649 197.313 140.531 197.431 140.531 197.576V198.403C140.531 198.549 140.649 198.666 140.794 198.666Z" fill="#3F3D56"/>
<path d="M208.559 200.922H210.29C210.436 200.922 210.553 200.805 210.553 200.659V199.832C210.553 199.687 210.436 199.569 210.29 199.569H208.559C208.414 199.569 208.296 199.687 208.296 199.832V200.659C208.296 200.805 208.414 200.922 208.559 200.922Z" fill="#3F3D56"/>
<path d="M204.045 200.922H205.776C205.922 200.922 206.039 200.805 206.039 200.659V199.832C206.039 199.687 205.922 199.569 205.776 199.569H204.045C203.9 199.569 203.782 199.687 203.782 199.832V200.659C203.782 200.805 203.9 200.922 204.045 200.922Z" fill="#3F3D56"/>
<path d="M199.531 200.922H201.262C201.407 200.922 201.525 200.805 201.525 200.659V199.832C201.525 199.687 201.407 199.569 201.262 199.569H199.531C199.386 199.569 199.268 199.687 199.268 199.832V200.659C199.268 200.805 199.386 200.922 199.531 200.922Z" fill="#3F3D56"/>
<path d="M195.017 200.922H196.748C196.893 200.922 197.011 200.805 197.011 200.659V199.832C197.011 199.687 196.893 199.569 196.748 199.569H195.017C194.872 199.569 194.754 199.687 194.754 199.832V200.659C194.754 200.805 194.872 200.922 195.017 200.922Z" fill="#3F3D56"/>
<path d="M190.503 200.922H192.234C192.379 200.922 192.497 200.805 192.497 200.659V199.832C192.497 199.687 192.379 199.569 192.234 199.569H190.503C190.358 199.569 190.24 199.687 190.24 199.832V200.659C190.24 200.805 190.358 200.922 190.503 200.922Z" fill="#3F3D56"/>
<path d="M185.989 200.922H187.72C187.865 200.922 187.983 200.805 187.983 200.659V199.832C187.983 199.687 187.865 199.569 187.72 199.569H185.989C185.844 199.569 185.726 199.687 185.726 199.832V200.659C185.726 200.805 185.844 200.922 185.989 200.922Z" fill="#3F3D56"/>
<path d="M181.475 200.922H183.206C183.351 200.922 183.469 200.805 183.469 200.659V199.832C183.469 199.687 183.351 199.569 183.206 199.569H181.475C181.329 199.569 181.212 199.687 181.212 199.832V200.659C181.212 200.805 181.329 200.922 181.475 200.922Z" fill="#3F3D56"/>
<path d="M176.961 200.922H178.692C178.837 200.922 178.955 200.805 178.955 200.659V199.832C178.955 199.687 178.837 199.569 178.692 199.569H176.961C176.815 199.569 176.698 199.687 176.698 199.832V200.659C176.698 200.805 176.815 200.922 176.961 200.922Z" fill="#3F3D56"/>
<path d="M172.447 200.922H174.177C174.323 200.922 174.44 200.805 174.44 200.659V199.832C174.44 199.687 174.323 199.569 174.177 199.569H172.447C172.301 199.569 172.183 199.687 172.183 199.832V200.659C172.183 200.805 172.301 200.922 172.447 200.922Z" fill="#3F3D56"/>
<path d="M167.932 200.922H169.663C169.809 200.922 169.926 200.805 169.926 200.659V199.832C169.926 199.687 169.809 199.569 169.663 199.569H167.932C167.787 199.569 167.669 199.687 167.669 199.832V200.659C167.669 200.805 167.787 200.922 167.932 200.922Z" fill="#3F3D56"/>
<path d="M163.418 200.922H165.149C165.294 200.922 165.412 200.805 165.412 200.659V199.832C165.412 199.687 165.294 199.569 165.149 199.569H163.418C163.273 199.569 163.155 199.687 163.155 199.832V200.659C163.155 200.805 163.273 200.922 163.418 200.922Z" fill="#3F3D56"/>
<path d="M158.904 200.922H160.635C160.78 200.922 160.898 200.805 160.898 200.659V199.832C160.898 199.687 160.78 199.569 160.635 199.569H158.904C158.759 199.569 158.641 199.687 158.641 199.832V200.659C158.641 200.805 158.759 200.922 158.904 200.922Z" fill="#3F3D56"/>
<path d="M154.39 200.922H156.121C156.266 200.922 156.384 200.805 156.384 200.659V199.832C156.384 199.687 156.266 199.569 156.121 199.569H154.39C154.245 199.569 154.127 199.687 154.127 199.832V200.659C154.127 200.805 154.245 200.922 154.39 200.922Z" fill="#3F3D56"/>
<path d="M149.876 200.922H151.607C151.752 200.922 151.87 200.805 151.87 200.659V199.832C151.87 199.687 151.752 199.569 151.607 199.569H149.876C149.731 199.569 149.613 199.687 149.613 199.832V200.659C149.613 200.805 149.731 200.922 149.876 200.922Z" fill="#3F3D56"/>
<path d="M145.362 200.922H147.093C147.238 200.922 147.356 200.805 147.356 200.659V199.832C147.356 199.687 147.238 199.569 147.093 199.569H145.362C145.217 199.569 145.099 199.687 145.099 199.832V200.659C145.099 200.805 145.217 200.922 145.362 200.922Z" fill="#3F3D56"/>
<path d="M140.848 200.922H142.579C142.724 200.922 142.842 200.805 142.842 200.659V199.832C142.842 199.687 142.724 199.569 142.579 199.569H140.848C140.702 199.569 140.585 199.687 140.585 199.832V200.659C140.585 200.805 140.702 200.922 140.848 200.922Z" fill="#3F3D56"/>
<path d="M171.092 203.629H188.623C188.768 203.629 188.886 203.512 188.886 203.366V202.539C188.886 202.394 188.768 202.276 188.623 202.276H171.092C170.947 202.276 170.829 202.394 170.829 202.539V203.366C170.829 203.512 170.947 203.629 171.092 203.629Z" fill="#3F3D56"/>
</g>
<defs>
<clipPath id="clip0_151_4801">
<rect width="449" height="341" fill="white"/>
</clipPath>
</defs>
</svg>
