<svg width="626" height="354" viewBox="0 0 626 354" fill="none" xmlns="http://www.w3.org/2000/svg">
<g clip-path="url(#clip0_153_4869)">
<path d="M534.119 224.749C534.685 224.61 535.213 224.348 535.666 223.982C536.12 223.616 536.488 223.155 536.744 222.631C537 222.108 537.139 221.534 537.15 220.951C537.161 220.368 537.044 219.79 536.808 219.257L547.147 209.573L539.994 207.852L531.272 217.311C530.405 217.768 529.734 218.528 529.389 219.447C529.043 220.366 529.046 221.38 529.397 222.297C529.748 223.213 530.422 223.969 531.293 224.421C532.163 224.873 533.169 224.99 534.119 224.749V224.749Z" fill="#FFB6B6"/>
<path d="M539.46 216.949L534.639 210.141L552.75 191.383L556.955 161.814C557.163 160.353 557.689 158.955 558.497 157.72C559.305 156.486 560.375 155.444 561.63 154.67C562.885 153.895 564.295 153.407 565.76 153.24C567.225 153.073 568.708 153.231 570.105 153.702C572.628 154.556 574.709 156.378 575.891 158.767C577.074 161.156 577.262 163.917 576.415 166.445L565.685 198.323L539.46 216.949Z" fill="#E4E4E4"/>
<path d="M573.466 342.937H568.113L565.567 322.262L573.467 322.262L573.466 342.937Z" fill="#FFB6B6"/>
<path d="M576.345 353.115H572.547L571.869 349.524L570.133 353.115H560.06C559.577 353.115 559.107 352.96 558.718 352.673C558.329 352.387 558.041 351.983 557.898 351.522C557.754 351.06 557.761 350.565 557.919 350.107C558.076 349.65 558.376 349.256 558.773 348.981L566.817 343.417V339.787L575.279 340.293L576.345 353.115Z" fill="#2F2E41"/>
<path d="M606.488 337.482L601.787 340.044L589.682 323.103L596.621 319.321L606.488 337.482Z" fill="#FFB6B6"/>
<path d="M613.876 345.044L610.539 346.862L608.23 344.032L608.419 348.017L599.57 352.839C599.146 353.07 598.66 353.16 598.181 353.094C597.703 353.028 597.258 352.811 596.911 352.475C596.565 352.138 596.335 351.699 596.255 351.222C596.175 350.745 596.249 350.256 596.467 349.824L600.878 341.087L599.145 337.898L606.819 334.292L613.876 345.044Z" fill="#2F2E41"/>
<path d="M575.721 335.575H564.659V296.129L557.811 270.412C552.896 252.021 551.59 232.85 553.965 213.961L553.975 213.884L554.034 213.834C554.21 213.686 571.737 199.173 582.824 210.275C590.297 217.759 583.275 244.668 582.882 246.145V292.533L575.721 335.575Z" fill="#2F2E41"/>
<path d="M575.694 149.582L575.635 149.524L561.531 149.738L554.001 167.438C547.03 178.28 553.695 184.447 554.164 185.424L552.83 198.727L551.972 207.31L550.594 221.128L582.919 210.553L579.323 196.129L583.478 175.324C584.4 170.723 584.173 165.965 582.814 161.474C581.456 156.983 579.01 152.897 575.694 149.582V149.582Z" fill="#E4E4E4"/>
<path d="M569.122 296.333L591.846 328.341L600.563 322.135L581.585 283.079L569.122 296.333Z" fill="#2F2E41"/>
<path d="M567.265 146.142C574.457 146.142 580.287 140.304 580.287 133.103C580.287 125.901 574.457 120.063 567.265 120.063C560.074 120.063 554.244 125.901 554.244 133.103C554.244 140.304 560.074 146.142 567.265 146.142Z" fill="#FFB6B6"/>
<path opacity="0.1" d="M579.823 183.548L565.621 199.958L551.972 207.31L552.831 198.727L560.868 194.208L579.823 183.548Z" fill="black"/>
<path d="M558.145 157.539L556.923 152.178C556.522 150.384 556.483 148.528 556.809 146.718C557.135 144.909 557.82 143.183 558.822 141.642C559.743 140.19 560.257 138.516 560.308 136.797C560.36 135.077 559.948 133.375 559.116 131.87C558.502 130.653 557.569 129.626 556.418 128.9C555.266 128.173 553.938 127.774 552.577 127.745H552.252V127.419C552.252 122.744 555.891 119.444 559.274 119.254C559.396 118.281 560.085 117.409 561.284 116.717C564.148 115.063 569.686 114.704 573.871 116.908C573.948 116.196 574.217 115.517 574.648 114.945C575.079 114.373 575.657 113.928 576.32 113.658C577.007 113.418 577.748 113.376 578.458 113.535C578.519 112.363 579.003 111.252 579.819 110.41C580.974 109.289 582.827 108.863 584.904 109.239C587.756 109.757 590.567 111.576 592.82 114.362C594.816 116.832 596.203 119.743 597.544 122.558C598.862 125.326 600.225 128.189 602.201 130.613C604.366 133.268 607.048 134.989 609.754 135.457C612.91 136.004 616.149 134.703 617.631 132.294L617.925 131.816L618.193 132.31C619.858 135.373 619.177 139.584 616.573 142.32C614.238 144.774 610.574 146.025 606.774 145.661C603.557 145.355 600.312 143.986 597.13 141.593C593.969 139.216 592.014 136.588 591.319 133.783C591.125 132.915 590.986 132.035 590.902 131.15C590.686 129.295 590.484 127.542 589.344 126.253C588.32 125.093 586.735 124.591 585.329 124.211L585.053 124.137C585.003 124.659 584.84 125.165 584.574 125.617C584.309 126.07 583.948 126.459 583.517 126.758C583.258 126.914 582.974 127.023 582.678 127.082C584.308 133.649 583.638 138.677 580.685 142.03C575.701 147.689 566.124 146.525 565.719 146.473L565.449 146.438L565.435 146.166C565.399 145.437 565.31 144.711 565.169 143.994C563.797 147.304 559.183 156.056 558.566 156.938L558.145 157.539Z" fill="#2F2E41"/>
<path d="M98.3092 178.594C97.9285 179.095 97.4425 179.507 96.8857 179.8C96.3288 180.094 95.7145 180.261 95.0861 180.29C94.4577 180.32 93.8304 180.211 93.2485 179.972C92.6666 179.733 92.1441 179.369 91.718 178.905L77.6945 185.013L79.0605 177.173L92.168 172.575C92.9929 171.91 94.0328 171.571 95.0908 171.622C96.1487 171.673 97.1511 172.111 97.9081 172.853C98.6651 173.595 99.124 174.589 99.198 175.647C99.2719 176.705 98.9557 177.754 98.3092 178.594V178.594Z" fill="#A0616A"/>
<path d="M88.951 181.042L56.3793 195.571L56.3094 195.546L19.1859 182.298C16.4207 180.851 14.3126 178.4 13.2931 175.447C12.2736 172.494 12.42 169.262 13.7022 166.414V166.414C14.4129 164.84 15.4484 163.435 16.7405 162.291C18.0326 161.147 19.5521 160.29 21.1988 159.776C22.8456 159.262 24.5823 159.104 26.2947 159.31C28.0071 159.517 29.6563 160.085 31.1338 160.976L58.7605 177.642L85.5499 174.165L88.951 181.042Z" fill="#3F3D56"/>
<path d="M102.597 85.3804C90.2839 58.1057 90.7379 23.5337 109.848 0.518188C116.241 32.433 133.701 61.0546 159.139 81.3189C168.977 89.0984 180.729 96.7252 183.417 108.987C185.089 116.616 182.719 124.686 178.621 131.332C174.522 137.978 168.809 143.445 163.162 148.833L162.528 150.677C137.953 133.638 114.911 112.655 102.597 85.3804Z" fill="#F0F0F0"/>
<path d="M110.38 0.850937C105.982 24.967 109.249 50.6462 119.939 72.7411C122.25 77.5179 125.009 82.1623 128.704 86.0042C132.334 89.7213 136.892 92.3972 141.904 93.7538C146.551 95.1128 151.463 95.9638 155.7 98.4305C160.166 101.031 162.937 105.393 164.017 110.396C165.338 116.517 164.384 122.749 163.239 128.81C161.969 135.54 160.542 142.511 162.384 149.276C162.607 150.096 161.324 150.394 161.101 149.576C157.897 137.805 164.126 126.196 163.255 114.362C162.849 108.84 160.779 103.407 156.05 100.207C151.916 97.4096 146.852 96.5276 142.134 95.1924C137.18 93.7904 132.731 91.6488 128.946 88.0965C125.073 84.4626 122.127 79.9165 119.704 75.2198C114.289 64.5283 110.586 53.0508 108.732 41.2075C106.54 27.7027 106.672 13.922 109.121 0.461571C109.273 -0.371475 110.531 0.0233214 110.38 0.850937V0.850937Z" fill="white"/>
<path d="M116.086 65.7428C112.096 67.023 107.783 66.8416 103.915 65.2309C100.047 63.6202 96.8766 60.6851 94.9702 56.9497C94.5871 56.1926 95.744 55.5608 96.1276 56.319C97.8965 59.8006 100.85 62.5343 104.455 64.0269C108.06 65.5194 112.078 65.6723 115.786 64.4581C116.592 64.1951 116.887 65.4813 116.086 65.7427L116.086 65.7428Z" fill="white"/>
<path d="M139.456 93.3757C143.442 85.7861 144.426 76.9709 142.21 68.6877C141.99 67.8672 143.273 67.5682 143.493 68.3877C145.782 77.0117 144.741 86.1832 140.575 94.072C140.178 94.8236 139.061 94.1232 139.456 93.3757Z" fill="white"/>
<path d="M108.234 28.1313C109.88 27.958 111.458 27.3778 112.825 26.443C114.193 25.5082 115.307 24.2479 116.068 22.7753C116.455 22.019 117.572 22.7202 117.187 23.4715C116.339 25.0946 115.106 26.485 113.598 27.5212C112.09 28.5574 110.351 29.2079 108.533 29.4159C108.364 29.4499 108.187 29.4179 108.04 29.3265C107.893 29.235 107.787 29.091 107.742 28.9236C107.703 28.7533 107.733 28.5745 107.825 28.4262C107.917 28.2778 108.064 28.1718 108.234 28.1313V28.1313Z" fill="white"/>
<path d="M211.05 0.785278C210.821 1.26443 210.592 1.74357 210.369 2.23252C207.327 8.69029 204.814 15.3849 202.854 22.2502C202.694 22.7786 202.54 23.3165 202.396 23.8484C197.851 40.439 196.421 57.7304 198.18 74.8436C198.886 81.6527 200.108 88.3981 201.836 95.0215C204.223 104.169 207.538 113.896 206.79 123.03C206.722 123.983 206.596 124.932 206.411 125.87L164.823 151.308C164.7 151.318 164.582 151.338 164.458 151.349L162.844 152.441C162.731 152.105 162.621 151.755 162.508 151.42C162.442 151.225 162.384 151.025 162.318 150.831C162.277 150.7 162.236 150.568 162.191 150.452C162.177 150.408 162.164 150.364 162.156 150.33C162.111 150.214 162.082 150.102 162.043 149.995C161.423 148.039 160.816 146.075 160.221 144.103C160.215 144.094 160.215 144.094 160.219 144.079C155.726 129.044 152.447 113.501 151.629 97.9547C151.604 97.4869 151.573 97.0099 151.568 96.5306C151.238 89.5208 151.48 82.4957 152.293 75.5255C152.75 71.7103 153.4 67.9207 154.24 64.1712C156.429 54.4875 160.125 45.2087 165.193 36.6751C175.299 19.6651 190.725 6.08098 209.604 1.14803C210.087 1.02213 210.561 0.901594 211.05 0.785278Z" fill="#F0F0F0"/>
<path d="M211.279 1.37103C193.268 17.9748 180.438 40.448 175.689 64.5345C174.663 69.742 174.074 75.114 174.714 80.4091C175.377 85.5656 177.408 90.4501 180.594 94.5551C183.488 98.4424 186.898 102.083 188.798 106.607C190.8 111.376 190.39 116.53 188.244 121.176C185.619 126.86 181.111 131.26 176.553 135.409C171.492 140.017 166.162 144.722 163.565 151.234C163.25 152.023 162.046 151.488 162.36 150.7C166.879 139.37 178.832 133.857 185.252 123.883C188.248 119.229 189.861 113.643 188.009 108.237C186.39 103.511 182.877 99.7534 179.913 95.8428C176.801 91.7366 174.536 87.3443 173.649 82.2255C172.742 76.9892 173.122 71.5829 174.011 66.372C176.116 54.5707 180.06 43.1742 185.7 32.5998C192.069 20.4957 200.46 9.57194 210.508 0.301124C211.13 -0.272423 211.897 0.801231 211.279 1.37102V1.37103Z" fill="white"/>
<path d="M176.82 56.6239C172.866 55.2409 169.53 52.4953 167.41 48.8772C165.291 45.2591 164.524 41.0042 165.248 36.8723C165.397 36.0368 166.7 36.2298 166.551 37.0665C165.87 40.9128 166.584 44.8762 168.565 48.2413C170.546 51.6065 173.663 54.1516 177.354 55.4175C178.155 55.6935 177.618 56.8983 176.82 56.6239H176.82Z" fill="white"/>
<path d="M178.867 92.7777C186.613 89.1212 192.698 82.6755 195.909 74.7258C196.226 73.9379 197.43 74.4728 197.113 75.2597C193.757 83.5261 187.411 90.2209 179.342 94.0082C178.573 94.3687 178.102 93.1361 178.867 92.7777V92.7777Z" fill="white"/>
<path d="M193.164 21.859C194.583 22.7134 196.191 23.2015 197.845 23.2794C199.499 23.3574 201.146 23.0228 202.639 22.3057C203.403 21.9357 203.873 23.1687 203.114 23.5363C201.461 24.3209 199.641 24.6882 197.814 24.6061C195.986 24.524 194.207 23.995 192.631 23.0653C192.475 22.9902 192.353 22.8584 192.291 22.6968C192.229 22.5351 192.23 22.3558 192.295 22.1952C192.366 22.0358 192.498 21.9111 192.66 21.8481C192.823 21.7852 193.004 21.7891 193.164 21.859V21.859Z" fill="white"/>
<path d="M370.509 99.7065C358.196 72.4319 358.65 37.8599 377.76 14.8444C384.153 46.7592 401.613 75.3807 427.051 95.6451C436.889 103.425 448.641 111.051 451.329 123.313C453.001 130.943 450.63 139.012 446.532 145.658C442.434 152.304 436.721 157.771 431.073 163.159L430.44 165.003C405.865 147.964 382.822 126.981 370.509 99.7065Z" fill="#F0F0F0"/>
<path d="M378.291 15.1771C373.893 39.2932 377.161 64.9724 387.85 87.0672C390.161 91.8441 392.921 96.4884 396.616 100.33C400.246 104.047 404.803 106.723 409.815 108.08C414.463 109.439 419.374 110.29 423.611 112.757C428.077 115.357 430.849 119.719 431.929 124.722C433.25 130.843 432.296 137.075 431.151 143.136C429.88 149.866 428.454 156.837 430.295 163.602C430.519 164.422 429.235 164.721 429.013 163.902C425.809 152.131 432.038 140.522 431.167 128.688C430.761 123.166 428.69 117.733 423.962 114.534C419.828 111.736 414.764 110.854 410.046 109.519C405.092 108.117 400.643 105.975 396.857 102.423C392.985 98.7888 390.038 94.2427 387.615 89.546C382.2 78.8545 378.498 67.3769 376.643 55.5337C374.452 42.0289 374.584 28.2481 377.033 14.7877C377.184 13.9547 378.442 14.3495 378.291 15.1771V15.1771Z" fill="white"/>
<path d="M383.997 80.0689C380.008 81.3492 375.694 81.1678 371.827 79.5571C367.959 77.9464 364.788 75.0113 362.882 71.2759C362.499 70.5188 363.656 69.887 364.039 70.6451C365.808 74.1267 368.762 76.8605 372.366 78.353C375.971 79.8455 379.99 79.9985 383.698 78.7842C384.504 78.5213 384.799 79.8075 383.997 80.0689V80.0689Z" fill="white"/>
<path d="M407.368 107.702C411.354 100.112 412.337 91.297 410.121 83.0138C409.901 82.1933 411.184 81.8943 411.404 82.7138C413.694 91.3378 412.652 100.509 408.487 108.398C408.089 109.15 406.973 108.449 407.368 107.702Z" fill="white"/>
<path d="M376.145 42.4574C377.792 42.2841 379.37 41.704 380.737 40.7692C382.105 39.8343 383.219 38.574 383.979 37.1014C384.367 36.3451 385.484 37.0463 385.098 37.7977C384.25 39.4208 383.018 40.8111 381.51 41.8473C380.001 42.8836 378.262 43.5341 376.445 43.7421C376.275 43.7761 376.099 43.7441 375.952 43.6527C375.805 43.5612 375.699 43.4171 375.654 43.2498C375.615 43.0795 375.645 42.9007 375.737 42.7524C375.829 42.604 375.976 42.498 376.145 42.4574V42.4574Z" fill="white"/>
<path d="M478.962 15.1115C478.733 15.5906 478.504 16.0697 478.281 16.5587C475.239 23.0165 472.725 29.7111 470.766 36.5764C470.606 37.1048 470.452 37.6427 470.307 38.1746C465.762 54.7652 464.333 72.0566 466.091 89.1697C466.797 95.9788 468.02 102.724 469.748 109.348C472.134 118.495 475.449 128.222 474.701 137.356C474.634 138.31 474.508 139.258 474.323 140.196L432.735 165.634C432.612 165.644 432.493 165.664 432.369 165.675L430.755 166.767C430.642 166.431 430.532 166.081 430.42 165.746C430.353 165.552 430.296 165.352 430.23 165.157C430.189 165.026 430.148 164.894 430.103 164.778C430.089 164.735 430.076 164.691 430.067 164.656C430.023 164.54 429.993 164.428 429.954 164.321C429.335 162.365 428.727 160.401 428.133 158.429C428.127 158.42 428.127 158.42 428.13 158.405C423.638 143.37 420.359 127.827 419.54 112.281C419.516 111.813 419.485 111.336 419.48 110.857C419.149 103.847 419.392 96.8219 420.205 89.8517C420.662 86.0364 421.312 82.2468 422.152 78.4974C424.34 68.8136 428.037 59.5348 433.105 51.0013C443.211 33.9912 458.636 20.4072 477.516 15.4742C477.999 15.3483 478.473 15.2278 478.962 15.1115Z" fill="#F0F0F0"/>
<path d="M479.191 15.6972C461.18 32.3009 448.35 54.7742 443.601 78.8607C442.574 84.0681 441.985 89.4401 442.626 94.7352C443.289 99.8918 445.319 104.776 448.506 108.881C451.4 112.769 454.809 116.409 456.709 120.933C458.712 125.702 458.302 130.856 456.156 135.502C453.531 141.186 449.022 145.586 444.464 149.736C439.404 154.343 434.074 159.048 431.477 165.56C431.162 166.35 429.958 165.814 430.272 165.027C434.791 153.697 446.744 148.183 453.164 138.209C456.159 133.555 457.773 127.969 455.921 122.564C454.302 117.837 450.789 114.08 447.825 110.169C444.712 106.063 442.448 101.671 441.561 96.5517C440.653 91.3154 441.034 85.909 441.923 80.6981C444.028 68.8969 447.972 57.5003 453.611 46.926C459.981 34.8219 468.371 23.8981 478.42 14.6273C479.042 14.0537 479.809 15.1274 479.191 15.6972V15.6972Z" fill="white"/>
<path d="M444.732 70.95C440.777 69.5671 437.442 66.8214 435.322 63.2033C433.202 59.5853 432.436 55.3303 433.159 51.1985C433.308 50.3629 434.612 50.556 434.463 51.3926C433.782 55.239 434.496 59.2024 436.477 62.5675C438.458 65.9326 441.575 68.4778 445.265 69.7437C446.067 70.0197 445.529 71.2245 444.732 70.95V70.95Z" fill="white"/>
<path d="M446.779 107.104C454.525 103.447 460.61 97.0016 463.82 89.052C464.138 88.2641 465.342 88.799 465.025 89.5859C461.668 97.8523 455.322 104.547 447.254 108.334C446.484 108.695 446.014 107.462 446.779 107.104V107.104Z" fill="white"/>
<path d="M461.076 36.1851C462.495 37.0395 464.103 37.5276 465.757 37.6056C467.411 37.6836 469.058 37.349 470.551 36.6319C471.315 36.2619 471.785 37.4949 471.026 37.8625C469.373 38.6471 467.553 39.0144 465.726 38.9323C463.898 38.8502 462.119 38.3212 460.543 37.3915C460.387 37.3163 460.265 37.1846 460.203 37.0229C460.141 36.8613 460.142 36.682 460.207 36.5214C460.278 36.362 460.41 36.2373 460.572 36.1743C460.735 36.1114 460.916 36.1152 461.076 36.1851V36.1851Z" fill="white"/>
<path d="M121.474 278.93H438.274V95.2635C438.272 93.8873 437.726 92.568 436.754 91.5949C435.782 90.6219 434.465 90.0745 433.091 90.073H126.658C125.283 90.0745 123.966 90.6219 122.994 91.5949C122.023 92.568 121.476 93.8873 121.474 95.2635V278.93Z" fill="#CACACA"/>
<path d="M428.486 97.2518H131.262V266.229H428.486V97.2518Z" fill="white"/>
<path d="M121.199 273.96V296.625C121.199 297.564 121.383 298.495 121.742 299.363C122.102 300.231 122.628 301.02 123.291 301.684C123.955 302.348 124.742 302.875 125.609 303.235C126.476 303.595 127.405 303.78 128.343 303.78H245.272V348.509H243.718C243.596 348.509 243.476 348.533 243.363 348.58C243.25 348.626 243.148 348.695 243.062 348.781C242.976 348.867 242.907 348.97 242.861 349.083C242.814 349.195 242.79 349.316 242.79 349.438V352.549C242.79 352.671 242.814 352.792 242.861 352.905C242.907 353.018 242.976 353.12 243.062 353.207C243.148 353.293 243.25 353.361 243.363 353.408C243.476 353.455 243.596 353.479 243.718 353.479H316.306C316.428 353.479 316.548 353.455 316.661 353.408C316.774 353.361 316.876 353.293 316.962 353.207C317.048 353.12 317.117 353.018 317.163 352.905C317.21 352.792 317.234 352.672 317.234 352.549V349.438C317.234 349.316 317.21 349.195 317.163 349.083C317.117 348.97 317.048 348.867 316.962 348.781C316.876 348.695 316.774 348.626 316.661 348.58C316.548 348.533 316.428 348.509 316.306 348.509H314.752V303.78H431.681C432.619 303.78 433.548 303.595 434.415 303.235C435.282 302.875 436.069 302.348 436.733 301.684C437.396 301.02 437.923 300.231 438.282 299.363C438.641 298.495 438.825 297.564 438.825 296.625V273.96L121.199 273.96Z" fill="#3F3D56"/>
<path d="M223.684 180.817H151.253C150.748 180.817 150.264 180.616 149.908 180.258C149.551 179.901 149.35 179.416 149.349 178.911V149.48C149.35 148.974 149.551 148.49 149.908 148.132C150.264 147.775 150.748 147.574 151.253 147.573H223.684C224.189 147.574 224.673 147.775 225.03 148.132C225.387 148.49 225.588 148.974 225.588 149.48V178.911C225.588 179.416 225.387 179.901 225.03 180.258C224.673 180.616 224.189 180.817 223.684 180.817V180.817Z" fill="#6C63FF"/>
<path d="M216.788 194.936H158.15C157.544 194.936 156.963 194.695 156.534 194.266C156.106 193.836 155.865 193.255 155.865 192.648C155.865 192.041 156.106 191.459 156.534 191.03C156.963 190.601 157.544 190.36 158.15 190.36H216.788C219.734 190.319 219.763 194.977 216.788 194.936Z" fill="#E4E4E4"/>
<path d="M216.788 205.421H158.15C157.544 205.421 156.963 205.18 156.534 204.751C156.106 204.322 155.865 203.74 155.865 203.134C155.865 202.527 156.106 201.945 156.534 201.516C156.963 201.087 157.544 200.846 158.15 200.846H216.788C219.734 200.805 219.763 205.463 216.788 205.421Z" fill="#E4E4E4"/>
<path d="M216.788 215.907H158.15C157.544 215.907 156.963 215.666 156.534 215.237C156.106 214.808 155.865 214.226 155.865 213.619C155.865 213.013 156.106 212.431 156.534 212.002C156.963 211.573 157.544 211.332 158.15 211.332H216.788C219.734 211.29 219.763 215.949 216.788 215.907Z" fill="#E4E4E4"/>
<path d="M316.09 180.817H243.658C243.154 180.817 242.67 180.616 242.313 180.258C241.956 179.901 241.755 179.416 241.755 178.911V149.48C241.755 148.974 241.956 148.49 242.313 148.132C242.67 147.775 243.154 147.574 243.658 147.573H316.09C316.595 147.574 317.079 147.775 317.435 148.132C317.792 148.49 317.993 148.974 317.994 149.48V178.911C317.993 179.416 317.792 179.901 317.435 180.258C317.079 180.616 316.595 180.817 316.09 180.817V180.817Z" fill="#6C63FF"/>
<path d="M309.193 194.936H250.555C249.949 194.936 249.368 194.695 248.94 194.266C248.511 193.836 248.271 193.255 248.271 192.648C248.271 192.041 248.511 191.459 248.94 191.03C249.368 190.601 249.949 190.36 250.555 190.36H309.193C312.139 190.319 312.169 194.977 309.193 194.936Z" fill="#E4E4E4"/>
<path d="M309.193 205.421H250.555C249.949 205.421 249.368 205.18 248.94 204.751C248.511 204.322 248.271 203.74 248.271 203.134C248.271 202.527 248.511 201.945 248.94 201.516C249.368 201.087 249.949 200.846 250.555 200.846H309.193C312.139 200.805 312.169 205.463 309.193 205.421Z" fill="#E4E4E4"/>
<path d="M309.193 215.907H250.555C249.949 215.907 249.368 215.666 248.94 215.237C248.511 214.808 248.271 214.226 248.271 213.619C248.271 213.013 248.511 212.431 248.94 212.002C249.368 211.573 249.949 211.332 250.555 211.332H309.193C312.139 211.29 312.169 215.949 309.193 215.907Z" fill="#E4E4E4"/>
<path d="M408.495 180.817H336.064C335.559 180.817 335.075 180.616 334.718 180.258C334.361 179.901 334.161 179.416 334.16 178.911V149.48C334.161 148.974 334.361 148.49 334.718 148.132C335.075 147.775 335.559 147.574 336.064 147.573H408.495C409 147.574 409.484 147.775 409.841 148.132C410.198 148.49 410.399 148.974 410.399 149.48V178.911C410.399 179.416 410.198 179.901 409.841 180.258C409.484 180.616 409 180.817 408.495 180.817V180.817Z" fill="#6C63FF"/>
<path d="M401.598 194.936H342.961C342.355 194.936 341.774 194.695 341.345 194.266C340.917 193.836 340.676 193.255 340.676 192.648C340.676 192.041 340.917 191.459 341.345 191.03C341.774 190.601 342.355 190.36 342.961 190.36H401.598C404.545 190.319 404.574 194.977 401.598 194.936Z" fill="#E4E4E4"/>
<path d="M401.598 205.421H342.961C342.355 205.42 341.775 205.179 341.348 204.75C340.92 204.321 340.68 203.74 340.68 203.134C340.68 202.528 340.92 201.946 341.348 201.517C341.775 201.088 342.355 200.847 342.961 200.846H401.598C404.545 200.805 404.574 205.463 401.598 205.421Z" fill="#E4E4E4"/>
<path d="M401.598 215.907H342.961C342.355 215.907 341.774 215.666 341.345 215.237C340.917 214.808 340.676 214.226 340.676 213.619C340.676 213.013 340.917 212.431 341.345 212.002C341.774 211.573 342.355 211.332 342.961 211.332H401.598C404.545 211.29 404.574 215.949 401.598 215.907Z" fill="#E4E4E4"/>
<path d="M532.264 147.971L532.462 184.86L533.27 184.814L534.037 198.472L532.538 198.554L532.58 206.759L533.779 206.735L534.022 220.404L532.656 220.429L533.307 340.805C533.321 343.957 532.086 346.986 529.872 349.227C527.659 351.468 524.648 352.738 521.5 352.758L388.716 353.479C385.568 353.493 382.543 352.256 380.306 350.04C378.068 347.823 376.8 344.808 376.78 341.656L375.737 148.821C375.723 145.669 376.958 142.64 379.172 140.399C381.385 138.158 384.396 136.888 387.544 136.868L520.328 136.148C523.475 136.135 526.499 137.372 528.737 139.588C530.974 141.805 532.243 144.819 532.264 147.971V147.971Z" fill="#3F3D56"/>
<path d="M521.693 345.174L388.441 345.898C387.471 345.902 386.538 345.521 385.849 344.838C385.159 344.154 384.768 343.225 384.762 342.253L383.71 148.137C383.706 147.166 384.087 146.232 384.769 145.541C385.452 144.851 386.38 144.459 387.35 144.453L520.602 143.729C521.572 143.725 522.504 144.106 523.194 144.79C523.884 145.473 524.275 146.402 524.281 147.374L525.332 341.49C525.336 342.462 524.956 343.395 524.273 344.086C523.591 344.777 522.663 345.168 521.693 345.174V345.174Z" fill="white"/>
<path d="M453.45 141.161C454.007 141.161 454.46 140.708 454.46 140.15C454.46 139.591 454.007 139.138 453.45 139.138C452.892 139.138 452.44 139.591 452.44 140.15C452.44 140.708 452.892 141.161 453.45 141.161Z" fill="white"/>
<path d="M493.082 198.366H415.96C415.423 198.366 414.908 198.152 414.528 197.771C414.148 197.391 413.934 196.875 413.933 196.336V165C413.934 164.461 414.148 163.945 414.528 163.565C414.908 163.184 415.423 162.97 415.96 162.97H493.082C493.62 162.97 494.135 163.184 494.515 163.565C494.895 163.945 495.109 164.461 495.11 165V196.336C495.109 196.875 494.895 197.391 494.515 197.771C494.135 198.152 493.62 198.366 493.082 198.366V198.366Z" fill="#6C63FF"/>
<path d="M485.739 213.399H423.304C422.659 213.399 422.04 213.142 421.584 212.685C421.127 212.229 420.871 211.609 420.871 210.963C420.871 210.317 421.127 209.697 421.584 209.241C422.04 208.784 422.659 208.527 423.304 208.527H485.739C488.876 208.483 488.907 213.443 485.739 213.399Z" fill="#E4E4E4"/>
<path d="M485.739 224.564H423.304C422.659 224.563 422.042 224.306 421.586 223.849C421.131 223.392 420.875 222.773 420.875 222.128C420.875 221.483 421.131 220.864 421.586 220.407C422.042 219.95 422.659 219.693 423.304 219.692H485.739C488.876 219.648 488.907 224.608 485.739 224.564Z" fill="#E4E4E4"/>
<path d="M485.739 235.729H423.304C422.659 235.729 422.04 235.472 421.584 235.015C421.127 234.559 420.871 233.939 420.871 233.293C420.871 232.647 421.127 232.027 421.584 231.57C422.04 231.113 422.659 230.857 423.304 230.857H485.739C488.876 230.813 488.907 235.773 485.739 235.729Z" fill="#E4E4E4"/>
<path d="M493.082 289.295H415.96C415.423 289.294 414.908 289.08 414.528 288.7C414.148 288.319 413.934 287.803 413.933 287.265V255.928C413.934 255.39 414.148 254.874 414.528 254.493C414.908 254.113 415.423 253.899 415.96 253.898H493.082C493.62 253.899 494.135 254.113 494.515 254.493C494.895 254.874 495.109 255.39 495.11 255.928V287.265C495.109 287.803 494.895 288.319 494.515 288.7C494.135 289.08 493.62 289.294 493.082 289.295V289.295Z" fill="#6C63FF"/>
<path d="M485.739 304.328H423.304C422.659 304.328 422.04 304.071 421.584 303.614C421.127 303.157 420.871 302.538 420.871 301.892C420.871 301.246 421.127 300.626 421.584 300.169C422.04 299.712 422.659 299.456 423.304 299.456H485.739C488.876 299.412 488.907 304.372 485.739 304.328Z" fill="#E4E4E4"/>
<path d="M485.739 315.492H423.304C422.659 315.491 422.042 315.234 421.586 314.778C421.131 314.321 420.875 313.702 420.875 313.056C420.875 312.411 421.131 311.792 421.586 311.335C422.042 310.879 422.659 310.622 423.304 310.621H485.739C488.876 310.577 488.907 315.537 485.739 315.492Z" fill="#E4E4E4"/>
<path d="M485.739 326.657H423.304C422.659 326.657 422.04 326.401 421.584 325.944C421.127 325.487 420.871 324.867 420.871 324.221C420.871 323.575 421.127 322.956 421.584 322.499C422.04 322.042 422.659 321.785 423.304 321.785H485.739C488.876 321.741 488.907 326.702 485.739 326.657Z" fill="#E4E4E4"/>
<path d="M150.419 344.006L150.163 237.697L151.131 237.695L151.084 218.142L150.116 218.144L150.037 185.504C150.034 184.285 149.791 183.078 149.323 181.953C148.854 180.828 148.169 179.806 147.306 178.946C146.443 178.086 145.42 177.405 144.294 176.941C143.168 176.478 141.962 176.24 140.745 176.243L71.7601 176.41C70.5427 176.413 69.3378 176.656 68.2142 177.125C67.0907 177.594 66.0704 178.281 65.2116 179.145C64.3529 180.009 63.6725 181.034 63.2093 182.161C62.7461 183.289 62.5092 184.496 62.5121 185.715L62.567 208.474L61.0256 208.513L61.3661 222.183L62.6 222.152L62.6073 225.169L61.2942 225.202L61.6346 238.872L62.6403 238.847L62.8946 344.218C62.8952 345.437 63.1363 346.645 63.6041 347.771C64.0719 348.897 64.7571 349.92 65.6204 350.781C66.4838 351.641 67.5082 352.322 68.6351 352.785C69.7619 353.248 70.969 353.484 72.187 353.479L141.171 353.312C143.629 353.303 145.983 352.319 147.717 350.574C149.45 348.83 150.422 346.468 150.419 344.006Z" fill="#3F3D56"/>
<path d="M70.0775 349.224C69.2172 348.915 68.4729 348.348 67.9458 347.6C67.4187 346.852 67.1343 345.959 67.1314 345.044L66.7451 184.869C66.7423 183.689 67.2077 182.557 68.0387 181.72C68.8697 180.884 69.9983 180.413 71.1763 180.41L85.8541 180.374L85.6722 180.823C85.357 181.603 85.238 182.448 85.3257 183.284C85.4133 184.12 85.705 184.922 86.1751 185.619C86.6451 186.315 87.279 186.886 88.021 187.279C88.763 187.673 89.5902 187.878 90.4298 187.876L123.004 187.797C123.815 187.726 124.598 187.465 125.289 187.035C125.981 186.605 126.561 186.018 126.984 185.322C127.401 184.638 127.65 183.864 127.712 183.065C127.773 182.266 127.645 181.463 127.338 180.723L127.154 180.275L142.315 180.238C143.493 180.236 144.623 180.703 145.458 181.535C146.293 182.367 146.764 183.496 146.768 184.676L147.137 337.496C147.141 340.625 145.905 343.628 143.701 345.846C141.496 348.064 138.503 349.316 135.378 349.327L71.5841 349.482C71.0709 349.484 70.5611 349.397 70.0775 349.224V349.224Z" fill="white"/>
<path d="M95.2079 184.171C95.7656 184.171 96.2178 183.718 96.2178 183.16C96.2178 182.601 95.7656 182.148 95.2079 182.148C94.6502 182.148 94.198 182.601 94.198 183.16C94.198 183.718 94.6502 184.171 95.2079 184.171Z" fill="white"/>
<path d="M134.245 233.398H81.835C81.4698 233.397 81.1197 233.252 80.8614 232.993C80.6032 232.735 80.4579 232.384 80.4575 232.018V210.722C80.4579 210.357 80.6032 210.006 80.8614 209.747C81.1197 209.489 81.4698 209.343 81.835 209.343H134.245C134.611 209.343 134.961 209.489 135.219 209.747C135.477 210.006 135.623 210.357 135.623 210.722V232.018C135.623 232.384 135.477 232.735 135.219 232.993C134.961 233.252 134.611 233.397 134.245 233.398V233.398Z" fill="#6C63FF"/>
<path d="M129.255 243.614H86.8255C86.6081 243.614 86.3928 243.571 86.1919 243.488C85.9909 243.405 85.8083 243.284 85.6545 243.13C85.5006 242.976 85.3786 242.793 85.2953 242.592C85.212 242.391 85.1691 242.176 85.1691 241.958C85.1691 241.74 85.212 241.525 85.2953 241.324C85.3786 241.123 85.5006 240.94 85.6545 240.786C85.8083 240.633 85.9909 240.511 86.1919 240.428C86.3928 240.345 86.6081 240.302 86.8255 240.303H129.255C131.387 240.273 131.408 243.644 129.255 243.614Z" fill="#E4E4E4"/>
<path d="M129.255 251.201H86.8255C86.3871 251.201 85.9666 251.027 85.6566 250.716C85.3466 250.406 85.1724 249.985 85.1724 249.545C85.1724 249.106 85.3466 248.685 85.6566 248.375C85.9666 248.064 86.3871 247.89 86.8255 247.89H129.255C131.387 247.86 131.408 251.231 129.255 251.201Z" fill="#E4E4E4"/>
<path d="M129.255 258.788H86.8255C86.6081 258.789 86.3928 258.746 86.1919 258.663C85.9909 258.58 85.8083 258.458 85.6545 258.305C85.5006 258.151 85.3786 257.968 85.2953 257.767C85.212 257.566 85.1691 257.351 85.1691 257.133C85.1691 256.915 85.212 256.7 85.2953 256.499C85.3786 256.298 85.5006 256.115 85.6545 255.961C85.8083 255.807 85.9909 255.686 86.1919 255.603C86.3928 255.52 86.6081 255.477 86.8255 255.477H129.255C131.387 255.448 131.408 258.818 129.255 258.788Z" fill="#E4E4E4"/>
<path d="M134.245 297.214H81.835C81.4698 297.214 81.1197 297.068 80.8614 296.81C80.6032 296.551 80.4579 296.2 80.4575 295.835V274.539C80.4579 274.173 80.6032 273.822 80.8614 273.564C81.1197 273.305 81.4698 273.16 81.835 273.159H134.245C134.611 273.16 134.961 273.305 135.219 273.564C135.477 273.822 135.623 274.173 135.623 274.539V295.835C135.623 296.2 135.477 296.551 135.219 296.81C134.961 297.068 134.611 297.214 134.245 297.214Z" fill="#6C63FF"/>
<path d="M129.255 307.43H86.8255C86.6081 307.43 86.3928 307.388 86.1919 307.305C85.9909 307.222 85.8083 307.1 85.6545 306.946C85.5006 306.793 85.3786 306.61 85.2953 306.409C85.212 306.208 85.1691 305.992 85.1691 305.775C85.1691 305.557 85.212 305.341 85.2953 305.14C85.3786 304.939 85.5006 304.757 85.6545 304.603C85.8083 304.449 85.9909 304.327 86.1919 304.244C86.3928 304.161 86.6081 304.119 86.8255 304.119H129.255C131.387 304.089 131.408 307.46 129.255 307.43Z" fill="#E4E4E4"/>
<path d="M129.255 315.017H86.8255C86.3871 315.017 85.9666 314.843 85.6566 314.533C85.3466 314.222 85.1724 313.801 85.1724 313.362C85.1724 312.923 85.3466 312.502 85.6566 312.191C85.9666 311.881 86.3871 311.706 86.8255 311.706H129.255C131.387 311.677 131.408 315.047 129.255 315.017Z" fill="#E4E4E4"/>
<path d="M129.255 322.605H86.8255C86.6081 322.605 86.3928 322.563 86.1919 322.48C85.9909 322.397 85.8083 322.275 85.6545 322.121C85.5006 321.967 85.3786 321.785 85.2953 321.584C85.212 321.383 85.1691 321.167 85.1691 320.949C85.1691 320.732 85.212 320.516 85.2953 320.315C85.3786 320.114 85.5006 319.931 85.6545 319.778C85.8083 319.624 85.9909 319.502 86.1919 319.419C86.3928 319.336 86.6081 319.294 86.8255 319.294H129.255C131.387 319.264 131.408 322.635 129.255 322.605Z" fill="#E4E4E4"/>
<path d="M17.0865 347.661L22.7816 347.661L25.4906 325.664H17.0852L17.0865 347.661Z" fill="#A0616A"/>
<path d="M15.6339 345.799L17.2368 345.799L23.4949 343.25L26.8491 345.799H26.8495C28.745 345.799 30.5629 346.553 31.9032 347.895C33.2435 349.237 33.9966 351.058 33.9967 352.956V353.189L15.6342 353.189L15.6339 345.799Z" fill="#2F2E41"/>
<path d="M39.1554 344.067L44.71 345.323L52.1914 324.465L43.9928 322.611L39.1554 344.067Z" fill="#A0616A"/>
<path d="M38.1478 341.931L39.7113 342.284L46.3764 341.179L49.0876 344.404L49.088 344.404C50.937 344.823 52.5443 345.959 53.5565 347.564C54.5686 349.169 54.9028 351.111 54.4854 352.962L54.4342 353.189L36.5225 349.139L38.1478 341.931Z" fill="#2F2E41"/>
<path d="M9.87378 213.184C7.20376 221.248 7.48604 230.001 10.5156 239.396L11.8106 292.291C11.8106 292.291 9.88108 326.978 16.1073 339.185H25.1372L29.608 289.123L30.1694 255.522L49.5284 283.87L37.198 338.366L48.3116 339.361L68.3204 280.22L43.6335 222.843L9.87378 213.184Z" fill="#2F2E41"/>
<path d="M45.2437 224.537L12.4093 219.278C11.5481 219.002 10.7568 218.542 10.0898 217.931C9.42272 217.32 8.89565 216.571 8.54478 215.736C8.1939 214.902 8.02752 214.001 8.05705 213.096C8.08659 212.191 8.31134 211.303 8.71588 210.493L10.2049 207.511L9.62649 176.175C9.55678 172.099 10.5602 168.077 12.5359 164.512C14.5115 160.948 17.3897 157.967 20.8809 155.871L24.0828 153.953L25.701 149.838L40.6221 150.203L40.6656 155.6L46.0092 164.133L46.009 164.168L45.6737 210.612L44.201 215.405L46.4278 220.98L45.2437 224.537Z" fill="#3F3D56"/>
<path d="M34.528 144.721C42.0155 144.721 48.0854 138.643 48.0854 131.145C48.0854 123.647 42.0155 117.568 34.528 117.568C27.0405 117.568 20.9706 123.647 20.9706 131.145C20.9706 138.643 27.0405 144.721 34.528 144.721Z" fill="#A0616A"/>
<path d="M20.4106 134.104C20.0063 132.399 20.1919 129.998 20.4204 128.28C20.7131 126.015 21.4777 123.837 22.6647 121.887C23.8517 119.937 25.4346 118.259 27.3109 116.96C28.0303 116.413 28.8851 116.073 29.7833 115.976C30.2323 115.938 30.6816 116.044 31.0671 116.277C31.4526 116.511 31.7544 116.86 31.9294 117.276C32.1555 116.711 32.4948 116.198 32.9265 115.77C33.3582 115.341 33.8731 115.005 34.4393 114.784C35.5767 114.347 36.8 114.182 38.0122 114.302C40.3617 114.496 42.615 115.323 44.5329 116.696C46.4508 118.069 47.9618 119.936 48.9055 122.099C49.2676 122.961 50.279 119.779 50.7378 120.593C51.1594 121.439 51.895 122.086 52.7871 122.396C53.6861 122.647 54.0513 126.356 54.405 125.491C54.6795 126.131 54.788 126.829 54.7205 127.522C54.6529 128.214 54.4113 128.878 54.0184 129.452C53.6255 130.026 53.094 130.491 52.4733 130.804C51.8526 131.116 51.163 131.267 50.4687 131.241C49.5611 131.123 48.6614 130.951 47.7746 130.724C46.1463 130.519 44.4992 130.917 43.1443 131.845C41.7894 132.772 40.8205 134.165 40.4205 135.758C40.173 134.832 39.7777 133.951 39.2498 133.15C38.9818 132.752 38.6227 132.424 38.2025 132.192C37.7822 131.961 37.3128 131.834 36.8335 131.821C36.3753 131.873 35.9326 132.019 35.5327 132.249C35.1329 132.48 34.7842 132.789 34.5082 133.159C33.9113 133.861 33.463 134.68 32.8618 135.378C31.0976 137.426 28.7114 142.202 26.1972 141.854C24.2131 141.579 20.9627 136.434 20.4106 134.104Z" fill="#2F2E41"/>
<path d="M85.0685 214.627C84.4915 214.878 83.8665 215 83.2377 214.983C82.6088 214.966 81.9913 214.811 81.4286 214.529C80.866 214.247 80.3719 213.845 79.9812 213.351C79.5904 212.858 79.3125 212.284 79.1671 211.671L63.9522 210.132L68.9718 203.963L82.6505 206.37C83.6949 206.194 84.7677 206.407 85.6655 206.97C86.5634 207.532 87.2239 208.405 87.522 209.423C87.82 210.441 87.7349 211.533 87.2827 212.492C86.8305 213.451 86.0427 214.211 85.0685 214.627V214.627Z" fill="#A0616A"/>
<path d="M75.7103 212.18L40.2037 208.904L40.155 208.848L14.2414 179.113C12.536 176.497 11.8939 173.327 12.4466 170.252C12.9992 167.177 14.7048 164.429 17.2142 162.573C18.6026 161.548 20.192 160.829 21.8778 160.464C23.5636 160.098 25.3075 160.095 26.9948 160.453C28.6821 160.811 30.2745 161.524 31.6671 162.543C33.0598 163.562 34.2211 164.864 35.0748 166.365L51.0355 194.431L76.1014 204.516L75.7103 212.18Z" fill="#3F3D56"/>
<path d="M625.226 354H0.774274C0.569314 353.999 0.372951 353.917 0.228232 353.772C0.0835132 353.627 0.00225067 353.43 0.00225067 353.225C0.00225067 353.019 0.0835132 352.822 0.228232 352.677C0.372951 352.532 0.569314 352.45 0.774274 352.449H625.226C625.431 352.449 625.628 352.531 625.773 352.676C625.918 352.822 626 353.019 626 353.225C626 353.43 625.918 353.627 625.773 353.773C625.628 353.918 625.431 354 625.226 354V354Z" fill="#CCCCCC"/>
<path d="M516.63 215.411C517.21 215.467 517.795 215.395 518.343 215.2C518.892 215.005 519.392 214.691 519.807 214.282C520.222 213.873 520.542 213.378 520.745 212.831C520.948 212.284 521.029 211.7 520.982 211.119L533.938 205.407L527.757 201.412L516.401 207.449C515.431 207.592 514.548 208.088 513.918 208.84C513.288 209.593 512.956 210.55 512.984 211.532C513.012 212.513 513.399 213.45 514.071 214.165C514.743 214.88 515.654 215.323 516.63 215.411V215.411Z" fill="#FFB6B6"/>
<path d="M524.248 209.82L521.947 201.798L545.236 190.097L558.974 163.588C559.653 162.278 560.612 161.133 561.783 160.236C562.953 159.338 564.307 158.71 565.747 158.395C567.187 158.08 568.679 158.087 570.117 158.414C571.554 158.742 572.902 159.382 574.064 160.29V160.29C576.162 161.932 577.524 164.341 577.851 166.987C578.178 169.633 577.443 172.301 575.808 174.406L555.15 200.933L524.248 209.82Z" fill="#E4E4E4"/>
</g>
<defs>
<clipPath id="clip0_153_4869">
<rect width="626" height="354" fill="white"/>
</clipPath>
</defs>
</svg>
