<svg width="371" height="389" viewBox="0 0 371 389" fill="none" xmlns="http://www.w3.org/2000/svg">
<circle cx="45" cy="241" r="45" fill="#FF9900" fill-opacity="0.63"/>
<path d="M149.8 102.18V286H105.34V102.18H149.8ZM267.856 99.32C285.19 99.32 300.876 103.393 314.916 111.54C329.13 119.513 340.31 130.693 348.456 145.08C356.603 159.293 360.676 175.413 360.676 193.44C360.676 211.467 356.516 227.673 348.196 242.06C340.05 256.447 328.87 267.713 314.656 275.86C300.616 283.833 285.016 287.82 267.856 287.82C250.696 287.82 235.01 283.833 220.796 275.86C206.756 267.713 195.576 256.447 187.256 242.06C179.11 227.673 175.036 211.467 175.036 193.44C175.036 175.413 179.11 159.293 187.256 145.08C195.576 130.693 206.756 119.513 220.796 111.54C235.01 103.393 250.696 99.32 267.856 99.32ZM267.856 140.66C253.296 140.66 241.683 145.427 233.016 154.96C224.523 164.32 220.276 177.147 220.276 193.44C220.276 209.56 224.523 222.387 233.016 231.92C241.683 241.453 253.296 246.22 267.856 246.22C282.243 246.22 293.77 241.453 302.436 231.92C311.103 222.387 315.436 209.56 315.436 193.44C315.436 177.32 311.103 164.493 302.436 154.96C293.943 145.427 282.416 140.66 267.856 140.66Z" fill="#7A7A7A"/>
</svg>
