<svg width="404" height="282" viewBox="0 0 404 282" fill="none" xmlns="http://www.w3.org/2000/svg">
<rect width="404" height="282" fill="#E2E3F3"/>
<rect width="404" height="282" fill="white"/>
<circle cx="63" cy="182" r="45" fill="#FF9900" fill-opacity="0.63"/>
<path d="M167.8 43.18V227H123.34V43.18H167.8ZM285.856 40.32C303.19 40.32 318.876 44.3933 332.916 52.54C347.13 60.5133 358.31 71.6933 366.456 86.08C374.603 100.293 378.676 116.413 378.676 134.44C378.676 152.467 374.516 168.673 366.196 183.06C358.05 197.447 346.87 208.713 332.656 216.86C318.616 224.833 303.016 228.82 285.856 228.82C268.696 228.82 253.01 224.833 238.796 216.86C224.756 208.713 213.576 197.447 205.256 183.06C197.11 168.673 193.036 152.467 193.036 134.44C193.036 116.413 197.11 100.293 205.256 86.08C213.576 71.6933 224.756 60.5133 238.796 52.54C253.01 44.3933 268.696 40.32 285.856 40.32ZM285.856 81.66C271.296 81.66 259.683 86.4267 251.016 95.96C242.523 105.32 238.276 118.147 238.276 134.44C238.276 150.56 242.523 163.387 251.016 172.92C259.683 182.453 271.296 187.22 285.856 187.22C300.243 187.22 311.77 182.453 320.436 172.92C329.103 163.387 333.436 150.56 333.436 134.44C333.436 118.32 329.103 105.493 320.436 95.96C311.943 86.4267 300.416 81.66 285.856 81.66Z" fill="#7A7A7A"/>
</svg>
